<svg width="249" height="251" viewBox="0 0 249 251" fill="none" xmlns="http://www.w3.org/2000/svg">
<ellipse cx="124.257" cy="125.219" rx="90" ry="92.6292" transform="rotate(-30 124.257 125.219)" fill="url(#paint0_linear_725_1524)"/>
<path d="M95.475 157.05C87.725 157.05 81.675 154.925 77.325 150.675C72.975 146.425 70.8 140.4 70.8 132.6V103.5H85.65V132.15C85.65 136.65 86.525 139.875 88.275 141.825C90.075 143.775 92.525 144.75 95.625 144.75C98.725 144.75 101.15 143.775 102.9 141.825C104.65 139.875 105.525 136.65 105.525 132.15V103.5H120.15V132.6C120.15 140.4 117.975 146.425 113.625 150.675C109.275 154.925 103.225 157.05 95.475 157.05ZM130.21 156V103.5H154.21C159.01 103.5 163.135 104.275 166.585 105.825C170.085 107.375 172.785 109.625 174.685 112.575C176.585 115.475 177.535 118.925 177.535 122.925C177.535 126.875 176.585 130.3 174.685 133.2C172.785 136.05 170.085 138.25 166.585 139.8C163.135 141.3 159.01 142.05 154.21 142.05H138.46L145.06 135.825V156H130.21ZM162.685 156L149.635 136.875H165.46L178.585 156H162.685ZM145.06 137.4L138.46 130.575H153.31C156.41 130.575 158.71 129.9 160.21 128.55C161.76 127.2 162.535 125.325 162.535 122.925C162.535 120.475 161.76 118.575 160.21 117.225C158.71 115.875 156.41 115.2 153.31 115.2H138.46L145.06 108.375V137.4Z" fill="white"/>
<defs>
<linearGradient id="paint0_linear_725_1524" x1="124.257" y1="32.59" x2="124.257" y2="217.848" gradientUnits="userSpaceOnUse">
<stop stop-color="#0066FF"/>
<stop offset="1" stop-color="#00FFFF"/>
</linearGradient>
</defs>
</svg>
